<?xml version="1.0" standalone="no"?>
<!DOCTYPE svg PUBLIC "-//W3C//DTD SVG 20010904//EN"
 "http://www.w3.org/TR/2001/REC-SVG-20010904/DTD/svg10.dtd">
<svg version="1.0" xmlns="http://www.w3.org/2000/svg"
 width="459.000000pt" height="320.000000pt" viewBox="0 0 459.000000 320.000000"
 preserveAspectRatio="xMidYMid meet">
<metadata>
Created by potrace 1.15, written by Peter Selinger 2001-2017
</metadata>
<g transform="translate(0.000000,320.000000) scale(0.100000,-0.100000)"
fill="#000000" stroke="none">
<path d="M1570 3189 c-93 -10 -198 -32 -270 -57 l-55 -19 0 -65 0 -64 75 23
c288 90 575 85 821 -13 130 -52 276 -153 384 -265 50 -52 100 -109 110 -126
19 -33 20 -33 93 -33 87 0 86 -4 15 104 -64 97 -220 250 -326 320 -241 160
-539 229 -847 195z"/>
<path d="M1016 3015 c-171 -88 -326 -206 -476 -362 l-95 -98 83 -3 83 -3 82
77 c110 102 220 184 339 253 82 46 98 59 93 76 -2 11 -5 39 -5 63 0 23 -4 42
-8 42 -4 0 -47 -20 -96 -45z"/>
<path d="M1605 2963 c-70 -4 -170 -21 -236 -39 l-56 -16 9 -51 c4 -29 9 -66
10 -82 l1 -30 91 24 c120 32 339 36 459 8 136 -32 266 -94 364 -174 l42 -34
113 3 113 3 -75 76 c-169 172 -405 281 -670 309 -52 5 -99 9 -105 8 -5 -1 -32
-3 -60 -5z"/>
<path d="M928 2718 c-42 -29 -104 -77 -138 -105 l-62 -53 127 0 c113 0 130 2
157 21 23 17 28 26 24 48 -3 14 -6 52 -8 84 -1 35 -6 57 -13 57 -6 0 -46 -24
-87 -52z"/>
<path d="M455 2437 c319 -72 320 -72 317 -97 -2 -14 -60 -326 -129 -695 l-126
-670 47 -90 c25 -49 63 -112 84 -140 l38 -50 72 -3 c40 -2 72 0 72 3 0 15 192
1050 195 1053 2 2 9 -16 15 -39 7 -24 70 -255 140 -514 70 -259 133 -490 140
-514 6 -23 13 -41 16 -38 11 11 141 734 134 747 -4 8 -74 264 -156 567 l-149
553 -515 -1 -515 -1 320 -71z"/>
<path d="M2820 2501 c-71 -22 -124 -68 -148 -127 -14 -36 -92 -451 -92 -492 0
-39 37 -93 80 -115 74 -38 197 0 252 78 24 35 35 75 74 280 27 140 43 252 40
270 -16 83 -114 134 -206 106z m85 -121 c17 -19 17 -27 -19 -222 -21 -112 -42
-218 -48 -235 -12 -42 -43 -63 -90 -63 -66 0 -67 16 -20 271 33 180 45 226 63
245 29 31 88 33 114 4z"/>
<path d="M3160 2492 c0 -5 -29 -165 -65 -356 -36 -191 -65 -354 -65 -362 0
-23 202 -19 255 5 78 35 124 114 141 240 6 50 -15 121 -37 121 -6 0 7 18 29
39 45 44 64 95 65 178 2 61 -20 98 -74 125 -26 14 -59 18 -141 18 -60 0 -108
-4 -108 -8z m202 -109 c31 -27 21 -116 -18 -158 -19 -21 -32 -25 -77 -25 l-55
0 13 63 c7 34 16 79 19 100 7 36 8 37 53 37 29 0 53 -6 65 -17z m-51 -300 c18
-21 15 -98 -7 -152 -19 -49 -55 -71 -114 -71 -35 0 -41 3 -36 18 2 9 13 63 23
120 l18 102 51 0 c36 0 56 -5 65 -17z"/>
<path d="M3630 2491 c0 -5 -29 -164 -65 -354 -36 -190 -65 -353 -65 -361 0
-24 97 -23 104 2 2 9 32 166 66 347 34 182 64 340 67 353 5 21 2 22 -51 22
-31 0 -56 -4 -56 -9z"/>
<path d="M3855 2488 c-4 -13 -135 -713 -135 -722 0 -9 318 -7 323 2 3 4 8 26
12 50 l7 42 -106 0 c-93 0 -106 2 -106 17 0 9 25 149 55 309 30 161 55 297 55
303 0 16 -100 14 -105 -1z"/>
<path d="M4260 2494 c0 -4 -29 -163 -65 -355 -36 -191 -65 -355 -65 -363 0
-14 21 -16 159 -16 l159 0 7 33 c4 17 9 40 11 50 5 15 -5 17 -105 17 -61 0
-111 2 -111 4 0 3 6 35 14 73 8 37 17 85 20 106 l7 37 94 0 c102 0 96 -4 110
68 l7 32 -96 0 c-53 0 -96 1 -96 3 0 1 9 49 20 107 11 58 20 106 20 107 0 2
50 3 110 3 61 0 110 3 110 8 1 4 5 26 9 50 l8 42 -163 0 c-90 0 -164 -3 -164
-6z"/>
<path d="M304 2358 c-134 -204 -246 -498 -283 -743 -51 -342 8 -708 156 -972
141 -253 398 -477 651 -567 148 -53 364 -84 497 -71 l76 7 -2 49 c-2 27 -5 53
-8 57 -3 5 -73 12 -156 15 -115 4 -173 11 -247 30 -230 60 -414 173 -552 337
-129 155 -201 285 -254 466 -75 250 -66 570 23 877 45 155 161 394 245 505
l38 50 -63 16 c-35 9 -66 16 -69 16 -2 0 -26 -33 -52 -72z"/>
<path d="M500 2284 c-319 -483 -372 -1034 -142 -1478 161 -312 483 -531 831
-564 l83 -8 -6 44 c-3 25 -6 61 -6 82 l0 37 -81 12 c-456 70 -759 418 -795
911 -8 115 8 277 41 405 40 158 151 395 245 521 21 28 40 61 42 74 3 21 -3 25
-67 42 -38 9 -73 18 -76 18 -3 0 -34 -43 -69 -96z"/>
<path d="M1960 615 c-63 -48 -230 -129 -322 -157 -66 -20 -76 -26 -73 -43 2
-11 4 -42 4 -70 2 -78 4 -79 107 -50 176 51 390 172 529 299 l60 55 -130 0
-130 0 -45 -34z"/>
<path d="M2296 564 c-205 -193 -417 -312 -703 -394 l-73 -21 0 -47 c0 -72 5
-75 88 -57 294 62 674 293 890 544 l53 61 -83 0 -83 -1 -89 -85z"/>
</g>
</svg>
